Pretty Baby (1978)

Director: Louis Malle

Pretty Baby is a 1978 historical fiction drama film directed by Louis Malle. The screenplay was written by Polly Platt. The title is inspired by the Tony Jackson song, "Pretty Baby", which is used in the soundtrack. Although the film was mostly praised by critics, it was quite controversial at the time, especially for its scenes of the nude pre-teen Brooke Shields.

After making a series of acclaimed and controversial films in his native France, director Louis Malle made his American debut with this disturbing but visually beautiful story about Hattie (Susan Sarandon), a prostitute working in New Orleans' Storyville district at the turn of the century. When Hattie becomes pregnant, she opts to keep her baby and gives birth to a daughter named Violet, raising her in the brothel where she continues to work. Twelve years later, Violet (Brooke Shields) is old enough to attract the attentions of the brothel's customers, but emotionally has one foot in the adult world of her surroundings and the other in the naïveté of childhood. With Hattie's consent, Violet's virginity is auctioned off to the customers of the house; but for Violet, the pull between childhood and adulthood becomes most clear -- and most painful -- when she draws the affections of Bellocq (Keith Carradine), a photographer who has been working on a photo series about Storyville prostitutes. Violet's blend of childlike innocence and adult sensuality is profoundly attractive to him, but their relationship quickly becomes problematic, especially when Hattie leaves Violet behind to get married. 

Media Info:
General
Complete name                    : J:\Seeding\Pretty Baby (1978)[DVDRip][big_dad_e™]\Pretty Baby (1978)[DVDRip][big_dad_e™].avi
Format                           : AVI
Format/Info                      : Audio Video Interleave
Format profile                   : OpenDML
File size                        : 1.33 GiB
Duration                         : 1h 49mn
Overall bit rate                 : 1 735 Kbps
Movie name                       : PRETTY_BABY.Title1.DVDRip
Writing application              : Lavf52.78.4
Original source form/Name        : PRETTY_BABY

Video
ID                               : 0
Format                           : MPEG-4 Visual
Format profile                   : Advanced Simple@L5
Format settings, BVOP            : 2
Format settings, QPel            : No
Format settings, GMC             : No warppoints
Format settings, Matrix          : Default (H.263)
Muxing mode                      : Packed bitstream
Codec ID                         : XVID
Codec ID/Hint                    : XviD
Duration                         : 1h 49mn
Bit rate                         : 1 400 Kbps
Width                            : 720 pixels
Height                           : 406 pixels
Display aspect ratio             : 16:9
Frame rate                       : 23.976 fps
Color space                      : YUV
Chroma subsampling               : 4:2:0
Bit depth                        : 8 bits
Scan type                        : Progressive
Compression mode                 : Lossy
Bits/(Pixel*Frame)               : 0.200
Stream size                      : 1.07 GiB (81%)
Writing library                  : XviD 
Audio
ID                               : 1
Format                           : MPEG Audio
Format version                   : Version 1
Format profile                   : Layer 3
Mode                             : Joint stereo
Codec ID                         : 55
Codec ID/Hint                    : MP3
Duration                         : 1h 49mn
Bit rate mode                    : Constant
Bit rate                         : 320 Kbps
Channel(s)                       : 2 channels
Sampling rate                    : 48.0 KHz
Compression mode                 : Lossy
Stream size                      : 63.9 MiB (5%)
Alignment                        : Aligned on interleaves
Interleave, duration             : 94 ms (2.26 video frames)
Interleave, preload duration     : 24 ms
Writing library                  : LAME3.98.4

File Scan:
Malwarebytes' Anti-Malware 1.50.1.1100
www.malwarebytes.org

Database version: 6127
3/21/2011 11:00:50 PM
mbam-log-2011-03-21 (23-00-50).txt

Scan type: Quick scan
Objects scanned: 5
Time elapsed: 9 second(s)

Memory Processes Infected: 0
Memory Modules Infected: 0
Registry Keys Infected: 0
Registry Values Infected: 0
Registry Data Items Infected: 0
Folders Infected: 0
Files Infected: 0

Memory Processes Infected:
(No malicious items detected)

Memory Modules Infected:
(No malicious items detected)

Registry Keys Infected:
(No malicious items detected)

Registry Values Infected:
(No malicious items detected)

Registry Data Items Infected:
(No malicious items detected)

Folders Infected:
(No malicious items detected)

Files Infected:
(No malicious items detected)

When using TPB please read these important notes:
  
01- Anti-malware apps may warn about keygens, patches, cracks, etc., because of 
    their capabilities, (generating codes, etc.). Sometimes they're added to 
    the virus/spyware database and will be detected as malware. If you don't trust
    the keygens, patches, cracks, etc., don't use them. 
    
02- Before running .exe-files, keygens, patches, cracks, etc., always check first 
    if they can be unpacked. Often some third party added a virus to the 
    original file, repacked it and uploaded it again.

03- Letting anti-malware apps send scan results to their companies can cause
    keygens, patches, cracks, etc., to be added to their virus-database.

04- Firewalls which are set to automatically determine connections will allow 
    apps & malware!. Avoid this by manually configuring your firewall.

05- Usually (new) torrents with many downloads and seeders in a brief period is
    suspicious! Torrents with the Skull & Crossbones icon are trusted.

06- Some people use multiple accounts and post fake comments 
    and/or files trying to spread confusion. They seldom seriously
    comment or have any torrents, or a just a few to look passable.

07- Clicking on unknown links can cause malware to be installed on your machine.
  
08- In general often there are more fake and negative comments than reliable and
    positive comments.

09- In some countries uploading/downloading copyright protected material is 
    forbidden, but showing some appreciation to reliable up-loaders is not.

10- Posting fake and negative comments or fake/infected uploads on TPB can result
    in getting banned from TPB!

Requests?  Find me on SuprBay. http://forum.suprbay.org
 

For reporting bad or suspicious torrents:  
http://forum.suprbay.org/forumdisplay.php?fid=29

For more of my torrents: 
https://thepiratebay.org/user/big_dad_e/  (Secured)

All torrents scanned with:
Norton Anti-virus
Malwarebytes' Anti-malware
 
http://www.pirate-party.us/

ALWAYS SEED & THANKS SEEDERS!